<?xml version="1.0" encoding="UTF-8" standalone="no"?>
<!DOCTYPE svg PUBLIC "-//W3C//DTD SVG 1.1//EN"
 "http://www.w3.org/Graphics/SVG/1.1/DTD/svg11.dtd">
<!-- Generated by graphviz version 2.40.1 (20161225.0304)
 -->
<!-- Title: G Pages: 1 -->
<svg width="929pt" height="218pt"
 viewBox="0.00 0.00 929.15 217.80" xmlns="http://www.w3.org/2000/svg" xmlns:xlink="http://www.w3.org/1999/xlink">
<g id="graph0" class="graph" transform="scale(1 1) rotate(0) translate(4 213.8)">
<title>G</title>
<!-- G8 -->
<g id="node1" class="node">
<title>G8</title>
<ellipse fill="#6495ed" stroke="#6495ed" cx="710.8198" cy="-104" rx="27" ry="18"/>
<text text-anchor="middle" x="710.8198" y="-99.8" font-family="Times,serif" font-size="14.00" fill="#ffffff">G8</text>
</g>
<!-- G9 -->
<g id="node2" class="node">
<title>G9</title>
<ellipse fill="#6495ed" stroke="#6495ed" cx="801.8198" cy="-147" rx="27" ry="18"/>
<text text-anchor="middle" x="801.8198" y="-142.8" font-family="Times,serif" font-size="14.00" fill="#ffffff">G9</text>
</g>
<!-- G8&#45;&gt;G9 -->
<g id="edge1" class="edge">
<title>G8&#45;&gt;G9</title>
<path fill="none" stroke="#b03060" d="M732.8484,-114.4091C744.1658,-119.7569 758.1512,-126.3654 770.5636,-132.2306"/>
<polygon fill="#b03060" stroke="#b03060" points="769.1419,-135.4298 779.6787,-136.5377 772.1326,-129.1008 769.1419,-135.4298"/>
</g>
<!-- G10 -->
<g id="node3" class="node">
<title>G10</title>
<ellipse fill="#6495ed" stroke="#6495ed" cx="893.4846" cy="-170" rx="27.8306" ry="18"/>
<text text-anchor="middle" x="893.4846" y="-165.8" font-family="Times,serif" font-size="14.00" fill="#ffffff">G10</text>
</g>
<!-- G9&#45;&gt;G10 -->
<g id="edge2" class="edge">
<title>G9&#45;&gt;G10</title>
<path fill="none" stroke="#b03060" d="M827.3536,-153.4068C836.73,-155.7595 847.5269,-158.4686 857.6415,-161.0065"/>
<polygon fill="#b03060" stroke="#b03060" points="856.8997,-164.4288 867.4509,-163.4678 858.6033,-157.6392 856.8997,-164.4288"/>
</g>
<!-- G3 -->
<g id="node4" class="node">
<title>G3</title>
<ellipse fill="#6495ed" stroke="#6495ed" cx="209" cy="-104" rx="27" ry="18"/>
<text text-anchor="middle" x="209" y="-99.8" font-family="Times,serif" font-size="14.00" fill="#ffffff">G3</text>
</g>
<!-- G3&#45;&gt;G8 -->
<g id="edge3" class="edge">
<title>G3&#45;&gt;G8</title>
<path fill="none" stroke="#b03060" d="M236.069,-105.3596C254.1632,-106.1533 278.5022,-107 300,-107 300,-107 300,-107 619.8198,-107 641.3176,-107 665.6566,-106.1533 683.7508,-105.3596"/>
<text text-anchor="middle" x="459.9099" y="-111.2" font-family="Times,serif" font-size="14.00" fill="#c0c0c0">niveau 3</text>
</g>
<!-- G4 -->
<g id="node8" class="node">
<title>G4</title>
<ellipse fill="#6495ed" stroke="#6495ed" cx="300" cy="-61" rx="27" ry="18"/>
<text text-anchor="middle" x="300" y="-56.8" font-family="Times,serif" font-size="14.00" fill="#ffffff">G4</text>
</g>
<!-- G3&#45;&gt;G4 -->
<g id="edge11" class="edge">
<title>G3&#45;&gt;G4</title>
<path fill="none" stroke="#b03060" d="M231.0286,-93.5909C242.346,-88.2431 256.3314,-81.6346 268.7438,-75.7694"/>
<polygon fill="#b03060" stroke="#b03060" points="270.3128,-78.8992 277.8589,-71.4623 267.3221,-72.5702 270.3128,-78.8992"/>
</g>
<!-- G2 -->
<g id="node5" class="node">
<title>G2</title>
<ellipse fill="#6495ed" stroke="#6495ed" cx="118" cy="-147" rx="27" ry="18"/>
<text text-anchor="middle" x="118" y="-142.8" font-family="Times,serif" font-size="14.00" fill="#ffffff">G2</text>
</g>
<!-- G2&#45;&gt;G9 -->
<g id="edge4" class="edge">
<title>G2&#45;&gt;G9</title>
<path fill="none" stroke="#b03060" d="M145.069,-148.3596C163.1632,-149.1533 187.5022,-150 209,-150 209,-150 209,-150 710.8198,-150 732.3176,-150 756.6566,-149.1533 774.7508,-148.3596"/>
<text text-anchor="middle" x="459.9099" y="-154.2" font-family="Times,serif" font-size="14.00" fill="#c0c0c0">niveau 2</text>
</g>
<!-- G2&#45;&gt;G3 -->
<g id="edge12" class="edge">
<title>G2&#45;&gt;G3</title>
<path fill="none" stroke="#b03060" d="M140.0286,-136.5909C151.346,-131.2431 165.3314,-124.6346 177.7438,-118.7694"/>
<polygon fill="#b03060" stroke="#b03060" points="179.3128,-121.8992 186.8589,-114.4623 176.3221,-115.5702 179.3128,-121.8992"/>
</g>
<!-- G1 -->
<g id="node6" class="node">
<title>G1</title>
<ellipse fill="#6495ed" stroke="#6495ed" cx="27" cy="-170" rx="27" ry="18"/>
<text text-anchor="middle" x="27" y="-165.8" font-family="Times,serif" font-size="14.00" fill="#ffffff">G1</text>
</g>
<!-- G1&#45;&gt;G10 -->
<g id="edge5" class="edge">
<title>G1&#45;&gt;G10</title>
<path fill="none" stroke="#b03060" d="M50.5389,-179.355C68.6748,-185.7227 94.5346,-193 118,-193 118,-193 118,-193 801.8198,-193 825.4464,-193 851.4964,-185.7227 869.7678,-179.355"/>
<text text-anchor="middle" x="459.9099" y="-197.2" font-family="Times,serif" font-size="14.00" fill="#c0c0c0">niveau 1</text>
</g>
<!-- G1&#45;&gt;G2 -->
<g id="edge13" class="edge">
<title>G1&#45;&gt;G2</title>
<path fill="none" stroke="#b03060" d="M52.3486,-163.5932C61.7359,-161.2206 72.5574,-158.4855 82.672,-155.9291"/>
<polygon fill="#b03060" stroke="#b03060" points="83.6343,-159.296 92.4718,-153.4522 81.919,-152.5094 83.6343,-159.296"/>
</g>
<!-- G7 -->
<g id="node7" class="node">
<title>G7</title>
<ellipse fill="#6495ed" stroke="#6495ed" cx="619.8198" cy="-61" rx="27" ry="18"/>
<text text-anchor="middle" x="619.8198" y="-56.8" font-family="Times,serif" font-size="14.00" fill="#ffffff">G7</text>
</g>
<!-- G7&#45;&gt;G8 -->
<g id="edge6" class="edge">
<title>G7&#45;&gt;G8</title>
<path fill="none" stroke="#b03060" d="M641.8484,-71.4091C653.1658,-76.7569 667.1512,-83.3654 679.5636,-89.2306"/>
<polygon fill="#b03060" stroke="#b03060" points="678.1419,-92.4298 688.6787,-93.5377 681.1326,-86.1008 678.1419,-92.4298"/>
</g>
<!-- G4&#45;&gt;G7 -->
<g id="edge7" class="edge">
<title>G4&#45;&gt;G7</title>
<path fill="none" stroke="#b03060" d="M327.2677,-61C387.6906,-61 532.2624,-61 592.6212,-61"/>
<text text-anchor="middle" x="459.9099" y="-65.2" font-family="Times,serif" font-size="14.00" fill="#c0c0c0">niveau 4</text>
</g>
<!-- G5 -->
<g id="node10" class="node">
<title>G5</title>
<ellipse fill="#6495ed" stroke="#6495ed" cx="391" cy="-18" rx="27" ry="18"/>
<text text-anchor="middle" x="391" y="-13.8" font-family="Times,serif" font-size="14.00" fill="#ffffff">G5</text>
</g>
<!-- G4&#45;&gt;G5 -->
<g id="edge10" class="edge">
<title>G4&#45;&gt;G5</title>
<path fill="none" stroke="#b03060" d="M322.0286,-50.5909C333.346,-45.2431 347.3314,-38.6346 359.7438,-32.7694"/>
<polygon fill="#b03060" stroke="#b03060" points="361.3128,-35.8992 368.8589,-28.4623 358.3221,-29.5702 361.3128,-35.8992"/>
</g>
<!-- G6 -->
<g id="node9" class="node">
<title>G6</title>
<ellipse fill="#6495ed" stroke="#6495ed" cx="528.8198" cy="-18" rx="27" ry="18"/>
<text text-anchor="middle" x="528.8198" y="-13.8" font-family="Times,serif" font-size="14.00" fill="#ffffff">G6</text>
</g>
<!-- G6&#45;&gt;G7 -->
<g id="edge8" class="edge">
<title>G6&#45;&gt;G7</title>
<path fill="none" stroke="#b03060" d="M550.8484,-28.4091C562.1658,-33.7569 576.1512,-40.3654 588.5636,-46.2306"/>
<polygon fill="#b03060" stroke="#b03060" points="587.1419,-49.4298 597.6787,-50.5377 590.1326,-43.1008 587.1419,-49.4298"/>
</g>
<!-- G5&#45;&gt;G6 -->
<g id="edge9" class="edge">
<title>G5&#45;&gt;G6</title>
<path fill="none" stroke="#b03060" d="M418.2288,-18C439.1815,-18 468.3694,-18 491.4984,-18"/>
<polygon fill="#b03060" stroke="#b03060" points="491.6476,-21.5001 501.6476,-18 491.6476,-14.5001 491.6476,-21.5001"/>
<text text-anchor="middle" x="459.9099" y="-22.2" font-family="Times,serif" font-size="14.00" fill="#c0c0c0">niveau 5</text>
</g>
</g>
</svg>
